<svg xmlns="http://www.w3.org/2000/svg" viewBox="0 0 186 50" fill="none" role="img" aria-label="Rawad Health">
<defs>
  <linearGradient id="iconBg" x1="0" y1="0" x2="50" y2="50" gradientUnits="userSpaceOnUse">
    <stop offset="0%" stop-color="#0A3D8F"/>
    <stop offset="100%" stop-color="#0096C7"/>
  </linearGradient>
  <linearGradient id="textBg" x1="64" y1="0" x2="186" y2="0" gradientUnits="userSpaceOnUse">
    <stop offset="0%" stop-color="#0A3D8F"/>
    <stop offset="100%" stop-color="#0077B6"/>
  </linearGradient>
  <filter id="ecgGlow" x="-20%" y="-100%" width="140%" height="300%">
    <feGaussianBlur in="SourceGraphic" stdDeviation="1.0" result="blur"/>
    <feMerge><feMergeNode in="blur"/><feMergeNode in="SourceGraphic"/></feMerge>
  </filter>
  <filter id="boxShadow" x="-6%" y="-6%" width="116%" height="124%">
    <feDropShadow dx="0" dy="2" stdDeviation="2.5" flood-color="#0A3D8F" flood-opacity="0.25"/>
  </filter>
</defs>
<rect x="0" y="0" width="50" height="50" rx="12" fill="url(#iconBg)" filter="url(#boxShadow)"/>
<circle cx="25" cy="11" r="5.5" fill="white" opacity="0.95"/>
<path d="M13 31 Q13 21 25 20 Q37 21 37 31 L37 37 Q37 40 34 40 L16 40 Q13 40 13 37 Z" fill="white" opacity="0.88"/>
<rect x="16" y="40" width="5" height="8" rx="2.5" fill="white" opacity="0.70"/>
<rect x="29" y="40" width="5" height="8" rx="2.5" fill="white" opacity="0.70"/>
<polyline points="1,33 10,33 12,30 14,33 16,33 19,37 25,10 31,37 33,33 36,30 38,33 49,33"
  stroke="#28C76F" stroke-width="2.2" stroke-linecap="round" stroke-linejoin="round" fill="none" filter="url(#ecgGlow)"/>
<circle cx="49" cy="33" r="2" fill="#28C76F" opacity="0.90"/>
<text x="64" y="25" font-family="'Segoe UI','Helvetica Neue',Helvetica,Arial,sans-serif"
  font-weight="800" font-size="21" letter-spacing="-0.3" fill="url(#textBg)">Rawad</text>
<line x1="64" y1="30" x2="184" y2="30" stroke="#C0D8EE" stroke-width="0.55"/>
<text x="65" y="40" font-family="'Segoe UI','Helvetica Neue',Helvetica,Arial,sans-serif"
  font-weight="300" font-size="10" letter-spacing="4.8" fill="#0077B6">HEALTH</text>
<text x="65" y="49" font-family="'Tajawal','Segoe UI',Arial,sans-serif"
  font-weight="400" font-size="7" letter-spacing="0.3" fill="#6AAFD4">منصة التوظيف الصحي</text>
</svg>
